<svg width="51" height="17" viewBox="0 0 51 17" fill="none" xmlns="http://www.w3.org/2000/svg">
<path d="M3.6664 12.9417C3.71825 12.9712 3.74468 13.002 3.74468 13.0347C3.74468 13.0529 3.73969 13.0706 3.72972 13.0869C3.71975 13.1033 3.71077 13.1169 3.7028 13.1282L3.57664 13.3089C3.54074 13.3525 3.50634 13.3747 3.47443 13.3747C3.46246 13.3711 3.4475 13.3665 3.42905 13.3611C3.4111 13.3556 3.39016 13.3457 3.36573 13.3311C3.21315 13.2326 3.0466 13.155 2.8661 13.0983C2.6856 13.0415 2.5031 13.0134 2.31811 13.0134C2.05334 13.0134 1.81151 13.0574 1.59261 13.145C1.37371 13.2326 1.18523 13.3507 1.02667 13.4986C0.868108 13.6466 0.744947 13.8182 0.65669 14.0139C0.568434 14.2095 0.524056 14.4147 0.524056 14.6303C0.524056 14.8568 0.572921 15.0688 0.671649 15.2658C0.769878 15.4633 0.901516 15.6339 1.06606 15.7783C1.23061 15.9226 1.42009 16.0357 1.63499 16.1178C1.8494 16.2 2.07329 16.2413 2.30614 16.2413C2.45872 16.2413 2.60931 16.2231 2.7574 16.1864C2.90599 16.1501 3.07054 16.0824 3.25104 15.9835C3.29093 15.9653 3.33132 15.9403 3.37121 15.9095C3.4111 15.8786 3.44551 15.8627 3.47343 15.8627C3.50933 15.8627 3.54373 15.8845 3.57565 15.9285L3.71426 16.1369C3.72623 16.1623 3.73222 16.1882 3.73222 16.2136C3.73222 16.254 3.71028 16.2849 3.6659 16.3067C3.47343 16.4347 3.26251 16.5341 3.03414 16.6054C2.80577 16.6766 2.55845 16.712 2.29368 16.712C1.97655 16.712 1.67887 16.6571 1.39964 16.5477C1.12091 16.4383 0.87808 16.2894 0.671151 16.101C0.464221 15.9131 0.30117 15.692 0.180502 15.4378C0.0603335 15.1841 0 14.9126 0 14.6239C0 14.3352 0.0603335 14.0642 0.180502 13.81C0.300671 13.5563 0.465218 13.3343 0.674142 13.1441C0.882568 12.9544 1.1264 12.8046 1.40563 12.6947C1.68436 12.5853 1.98254 12.5304 2.29966 12.5304C2.55247 12.5304 2.7943 12.5658 3.02516 12.6371C3.25603 12.7088 3.46994 12.81 3.6664 12.9417Z" fill="black"/>
<path d="M5.01457 15.7638L4.6775 16.5418C4.6416 16.6149 4.58525 16.6512 4.50896 16.6512H4.25018C4.16591 16.6512 4.12402 16.6222 4.12402 16.5636C4.12402 16.5491 4.12602 16.5328 4.13001 16.5142C4.13001 16.5069 4.132 16.4996 4.13599 16.4924C4.42469 15.8569 4.66852 15.3226 4.86747 14.8895C5.06643 14.4565 5.23047 14.0988 5.36111 13.8155C5.49126 13.5323 5.59198 13.3153 5.66228 13.1637C5.73259 13.0121 5.78345 12.9008 5.81586 12.8296C5.84777 12.7583 5.87021 12.7102 5.88218 12.6843C5.89016 12.6662 5.90312 12.6453 5.92157 12.6212C5.93952 12.5976 5.97692 12.5858 6.03276 12.5858H6.20728C6.25914 12.5858 6.29554 12.5976 6.31548 12.6212C6.33543 12.6448 6.34939 12.6662 6.35787 12.6843L8.09109 16.4983C8.09508 16.5055 8.09907 16.5128 8.10306 16.5201C8.10705 16.5419 8.10904 16.5568 8.10904 16.5641C8.10904 16.6226 8.06466 16.6517 7.97641 16.6517H7.71762C7.63734 16.6517 7.58299 16.6172 7.55507 16.5478L7.20603 15.7643H5.01457V15.7638ZM6.11603 13.2926L5.23147 15.2981H6.99511L6.11603 13.2926Z" fill="black"/>
<path d="M8.77637 16.5309V12.717C8.77637 12.6294 8.82224 12.5853 8.91499 12.5853H10.4079C10.6043 12.5853 10.7878 12.6194 10.9589 12.6866C11.1294 12.7542 11.277 12.8454 11.4011 12.9607C11.5253 13.076 11.623 13.2108 11.6928 13.3661C11.7631 13.5213 11.798 13.6848 11.798 13.8563C11.798 14.0243 11.7626 14.185 11.6928 14.3384C11.6225 14.4919 11.5263 14.6262 11.4041 14.7411C11.2815 14.8564 11.1364 14.9476 10.9678 15.0152C10.7993 15.0829 10.6188 15.1165 10.4263 15.1165H9.29494V16.53C9.29494 16.6104 9.25056 16.6508 9.1623 16.6508H8.9095C8.82025 16.6512 8.77637 16.6113 8.77637 16.5309ZM11.2805 13.8513C11.2805 13.7456 11.2575 13.6439 11.2112 13.5472C11.1648 13.4505 11.103 13.3656 11.0247 13.2926C10.9464 13.2195 10.8541 13.1609 10.7479 13.1173C10.6417 13.0733 10.528 13.0515 10.4079 13.0515H9.29444V14.6516H10.4079C10.5285 14.6516 10.6407 14.6298 10.7449 14.5858C10.8492 14.5422 10.9414 14.4837 11.0217 14.4106C11.102 14.3375 11.1653 14.2526 11.2112 14.1559C11.257 14.0588 11.2805 13.9571 11.2805 13.8513Z" fill="black"/>
<path d="M13.0796 12.7061V16.5309C13.0796 16.6113 13.0352 16.6517 12.947 16.6517H12.6942C12.6059 16.6517 12.5615 16.6117 12.5615 16.5309V12.7061C12.5615 12.6257 12.6054 12.5853 12.6942 12.5853H12.947C13.0352 12.5853 13.0796 12.6257 13.0796 12.7061Z" fill="black"/>
<path d="M13.8325 12.5853H16.9264C16.9623 12.5853 16.9947 12.5953 17.0227 12.6153C17.0506 12.6353 17.0665 12.6657 17.0705 12.7056V12.9303C17.0705 12.9671 17.0586 12.998 17.0346 13.0234C17.0107 13.0488 16.9743 13.0615 16.9264 13.0615H15.6445V16.53C15.6445 16.5627 15.6325 16.5913 15.6086 16.6149C15.5846 16.6385 15.5502 16.6503 15.5063 16.6503H15.2595C15.2191 16.6503 15.1862 16.6394 15.1603 16.6176C15.1344 16.5958 15.1209 16.5663 15.1209 16.53V13.0615H13.833C13.7407 13.0615 13.6943 13.0175 13.6943 12.9299V12.7052C13.6938 12.6257 13.7397 12.5853 13.8325 12.5853Z" fill="black"/>
<path d="M16.956 15.7638L16.6189 16.5418C16.583 16.6149 16.5267 16.6512 16.4504 16.6512H16.1916C16.1073 16.6512 16.0654 16.6222 16.0654 16.5636C16.0654 16.5491 16.0674 16.5328 16.0714 16.5142C16.0714 16.5069 16.0734 16.4996 16.0774 16.4924C16.3661 15.8569 16.6099 15.3226 16.8089 14.8895C17.0078 14.4565 17.1719 14.0988 17.3025 13.8155C17.4327 13.5323 17.5334 13.3153 17.6037 13.1637C17.674 13.0121 17.7249 12.9008 17.7573 12.8296C17.7892 12.7583 17.8116 12.7102 17.8236 12.6843C17.8316 12.6662 17.8445 12.6453 17.863 12.6212C17.8809 12.5976 17.9183 12.5858 17.9742 12.5858H18.1487C18.2005 12.5858 18.2369 12.5976 18.2569 12.6212C18.2768 12.6448 18.2908 12.6662 18.2993 12.6843L20.0325 16.4983C20.0365 16.5055 20.0405 16.5128 20.0445 16.5201C20.0485 16.5419 20.0504 16.5568 20.0504 16.5641C20.0504 16.6226 20.0061 16.6517 19.9178 16.6517H19.659C19.5787 16.6517 19.5244 16.6172 19.4965 16.5478L19.1474 15.7643H16.956V15.7638ZM18.0574 13.2926L17.1729 15.2981H18.9365L18.0574 13.2926Z" fill="black"/>
<path d="M21.2358 16.1854H23.4088C23.4447 16.1854 23.4762 16.1963 23.5021 16.2181C23.528 16.2399 23.5415 16.2712 23.5415 16.3112V16.5304C23.5415 16.5631 23.5295 16.5917 23.5056 16.6153C23.4816 16.6389 23.4492 16.6507 23.4093 16.6507H20.8514C20.7631 16.6507 20.7188 16.6108 20.7188 16.53V12.7051C20.7188 12.6724 20.7307 12.6438 20.7547 12.6202C20.7786 12.5966 20.813 12.5848 20.8569 12.5848H21.1037C21.1919 12.5848 21.2363 12.6252 21.2363 12.7056V16.1854H21.2358Z" fill="black"/>
<path d="M26.5747 12.7061V16.5309C26.5747 16.6113 26.5303 16.6517 26.4421 16.6517H26.1893C26.101 16.6517 26.0566 16.6117 26.0566 16.5309V12.7061C26.0566 12.6257 26.1005 12.5853 26.1893 12.5853H26.4421C26.5303 12.5853 26.5747 12.6257 26.5747 12.7061Z" fill="black"/>
<path d="M31.2092 16.6512H30.9265C30.8821 16.6512 30.8442 16.6349 30.8123 16.6017L28.0679 13.3193V16.5305C28.0679 16.6108 28.0215 16.6512 27.9293 16.6512H27.6824C27.5942 16.6512 27.5498 16.6113 27.5498 16.5305V12.7111C27.5498 12.6748 27.5618 12.6443 27.5857 12.6207C27.6096 12.5971 27.6416 12.5853 27.6819 12.5853H28.013C28.0609 12.5853 28.0993 12.6035 28.1272 12.6403L30.8298 15.8405V12.6897C30.8417 12.6203 30.8861 12.5858 30.9624 12.5858H31.2092C31.2451 12.5858 31.2785 12.5967 31.3084 12.6185C31.3384 12.6403 31.3533 12.6698 31.3533 12.7061V16.5309C31.3533 16.6113 31.3055 16.6512 31.2092 16.6512Z" fill="black"/>
<path d="M32.3096 16.5364V12.7115C32.3096 12.6275 32.3534 12.5853 32.4422 12.5853H35.3013C35.3936 12.5853 35.4399 12.6275 35.4399 12.7115V12.9362C35.4399 12.9689 35.428 12.9984 35.404 13.0238C35.3801 13.0492 35.3457 13.062 35.3018 13.062H32.8276V14.4755C32.9478 14.4755 33.0954 14.4755 33.2699 14.4755C33.4444 14.4755 33.6249 14.4764 33.8119 14.4782C33.9984 14.48 34.1789 14.481 34.3534 14.481C34.528 14.481 34.6755 14.481 34.7957 14.481C34.8316 14.481 34.863 14.4909 34.889 14.5109C34.9149 14.5309 34.9279 14.5631 34.9279 14.6067V14.8314C34.9279 14.8641 34.9169 14.8936 34.8949 14.919C34.873 14.9444 34.8396 14.9571 34.7957 14.9571H32.8276V16.535C32.8276 16.6117 32.7813 16.6503 32.689 16.6503H32.4422C32.3539 16.6512 32.3096 16.6131 32.3096 16.5364Z" fill="black"/>
<path d="M36.6021 12.7061V16.5309C36.6021 16.6113 36.5577 16.6517 36.4694 16.6517H36.2166C36.1284 16.6517 36.084 16.6117 36.084 16.5309V12.7061C36.084 12.6257 36.1279 12.5853 36.2166 12.5853H36.4694C36.5582 12.5853 36.6021 12.6257 36.6021 12.7061Z" fill="black"/>
<path d="M41.2366 16.6512H40.9538C40.9095 16.6512 40.8716 16.6349 40.8397 16.6017L38.0952 13.3193V16.5305C38.0952 16.6108 38.0488 16.6512 37.9566 16.6512H37.7098C37.6215 16.6512 37.5771 16.6113 37.5771 16.5305V12.7111C37.5771 12.6748 37.5891 12.6443 37.613 12.6207C37.637 12.5971 37.6694 12.5853 37.7093 12.5853H38.0404C38.0887 12.5853 38.1266 12.6035 38.1546 12.6403L40.8571 15.8405V12.6897C40.8691 12.6203 40.913 12.5858 40.9897 12.5858H41.2366C41.2725 12.5858 41.3059 12.5967 41.3358 12.6185C41.3657 12.6403 41.3812 12.6698 41.3812 12.7061V16.5309C41.3812 16.6113 41.3328 16.6512 41.2366 16.6512Z" fill="black"/>
<path d="M42.855 12.7061V16.5309C42.855 16.6113 42.8106 16.6517 42.7224 16.6517H42.4695C42.3813 16.6517 42.3369 16.6117 42.3369 16.5309V12.7061C42.3369 12.6257 42.3808 12.5853 42.4695 12.5853H42.7224C42.8106 12.5853 42.855 12.6257 42.855 12.7061Z" fill="black"/>
<path d="M43.6074 12.5853H46.7008C46.7367 12.5853 46.7692 12.5953 46.7971 12.6153C46.825 12.6353 46.841 12.6657 46.8449 12.7056V12.9303C46.8449 12.9671 46.833 12.998 46.809 13.0234C46.7851 13.0488 46.7487 13.0615 46.7008 13.0615H45.4189V16.53C45.4189 16.5627 45.4069 16.5913 45.383 16.6149C45.359 16.6385 45.3246 16.6503 45.2808 16.6503H45.0339C44.994 16.6503 44.9606 16.6394 44.9347 16.6176C44.9083 16.5958 44.8953 16.5663 44.8953 16.53V13.0615H43.6074C43.5151 13.0615 43.4688 13.0175 43.4688 12.9299V12.7052C43.4688 12.6257 43.5146 12.5853 43.6074 12.5853Z" fill="black"/>
<path d="M48.7414 14.8759L47.2849 12.7224C47.261 12.6897 47.249 12.662 47.249 12.6403C47.249 12.6039 47.2789 12.5853 47.3393 12.5853H47.7307C47.7706 12.589 47.798 12.5962 47.812 12.6071C47.8259 12.618 47.8514 12.6493 47.8873 12.7002L49.0007 14.3879L50.1381 12.6784C50.162 12.6421 50.1834 12.618 50.2014 12.6071C50.2193 12.5962 50.2448 12.589 50.2767 12.5853H50.6861C50.7339 12.5853 50.7584 12.6017 50.7584 12.6348C50.7584 12.6421 50.7564 12.6521 50.7524 12.6648C50.7484 12.6775 50.7404 12.6911 50.7284 12.7061C50.4796 13.0715 50.2358 13.4301 49.997 13.7828C49.7581 14.1355 49.5143 14.4941 49.2655 14.8595V16.5255C49.2655 16.6095 49.2191 16.6517 49.1269 16.6517H48.8681C48.7838 16.6517 48.7414 16.6099 48.7414 16.5255V14.8759Z" fill="black"/>
<path d="M29.0524 1.73678C30.9707 1.8262 29.743 -0.382184 28.5294 0.0581322C27.9181 0.279652 27.0624 1.64418 29.0524 1.73678Z" fill="#FABB30"/>
<path d="M31.8767 5.38231C31.8149 4.66147 31.6075 3.68279 30.5848 2.89385C29.6095 2.14168 28.3858 2.21204 28.0169 2.35412C27.6264 2.50483 27.5876 2.83121 27.5876 2.83121C28.3604 2.62557 28.9024 2.95468 29.255 3.27561C29.588 3.57884 29.8752 4.21752 29.9406 4.42724C30.4447 6.04324 29.9261 6.67103 29.245 6.69645C28.4716 6.7255 27.3178 5.33147 25.5192 2.94878C24.8267 2.03183 23.5756 0.495263 22.0857 0.223811C20.5958 -0.0476416 18.6781 0.683646 18.6651 4.01007C18.6532 7.08457 19.7462 9.29658 21.796 9.67517C23.0959 9.9153 24.2258 9.30657 24.5604 8.68922C25.0525 7.78135 24.714 7.32333 24.714 7.32333C24.714 7.32333 24.6347 7.69783 24.1356 7.94886C23.422 8.30746 22.6671 8.29248 21.9755 7.84173C21.2839 7.39142 20.6856 6.54393 20.4383 4.3773C20.0882 1.31053 21.8917 1.2497 23.4724 3.1013C24.3201 4.09405 24.6816 4.75543 25.7062 5.95881C26.5469 6.94566 27.8528 8.68922 29.6788 8.50402C31.4933 8.32017 31.9775 6.55755 31.8767 5.38231Z" fill="#FABB30"/>
</svg>
