<svg width="26" height="26" viewBox="0 0 26 26" fill="none" xmlns="http://www.w3.org/2000/svg">
<path d="M14.7353 0.00160343C20.8966 -0.111437 25.9034 5.7671 25.9999 13.0016V13.1149C25.8074 20.2367 20.8968 26.0026 14.7353 26.0026H10.788C4.81943 25.889 0.00579281 20.1233 0.00579281 13.1149C-0.186541 6.10671 4.43442 0.228253 10.3066 0.00160343H14.7353ZM11.0771 2.26235C6.07125 2.26273 1.93181 7.12378 1.93157 13.0016C1.93157 18.8797 6.07111 23.7405 11.0771 23.7409C16.0833 23.7409 20.2236 18.8799 20.2236 13.0016C20.2233 7.12355 16.0832 2.26235 11.0771 2.26235ZM9.63372 20.237C6.26414 19.2196 4.24187 15.1495 5.10833 11.193C5.68603 8.59313 7.4195 6.55875 9.63372 5.88051V20.237ZM12.5214 5.88051C15.891 6.89791 18.009 10.8546 17.1425 14.8112C16.5648 17.524 14.8319 19.5587 12.5214 20.237V5.88051Z" fill="#0079BE"/>
</svg>
