<svg xmlns="http://www.w3.org/2000/svg" xmlns:xlink="http://www.w3.org/1999/xlink" width="1080" zoomAndPan="magnify" viewBox="0 0 810 809.999993" height="1080" preserveAspectRatio="xMidYMid meet" version="1.0"><defs><filter x="0%" y="0%" width="100%" height="100%" id="a2abccaf60"><feColorMatrix values="0 0 0 0 1 0 0 0 0 1 0 0 0 0 1 0 0 0 1 0" color-interpolation-filters="sRGB"/></filter><mask id="dfb9b96355"><g filter="url(#a2abccaf60)"><rect x="-81" width="972" fill="#000000" y="-80.999999" height="971.999992" fill-opacity="0.25"/></g></mask><clipPath id="c191195b87"><path d="M 0.28125 2 L 40 2 L 40 26 L 0.28125 26 Z M 0.28125 2 " clip-rule="nonzero"/></clipPath><clipPath id="bd454f1b74"><rect x="0" width="41" y="0" height="27"/></clipPath></defs><path fill="#f0208c" d="M 627.054688 460.511719 C 627.054688 460.511719 379.765625 536.832031 204.9375 460.511719 L 262.015625 260.355469 C 262.015625 260.355469 287.804688 118.289062 402.5 119.109375 C 402.5 119.109375 513.351562 100.363281 555.957031 242.289062 Z M 627.054688 460.511719 " fill-opacity="1" fill-rule="nonzero"/><path stroke-linecap="round" transform="matrix(1.582031, 0, 0, 1.582031, 0.0000035, 0.00002)" fill-opacity="1" fill="#ffffff" fill-rule="nonzero" stroke-linejoin="miter" d="M 331.330877 210.439503 C 331.330877 210.439503 348.940755 206.288886 351.06915 221.839504 C 351.316064 223.799998 351.274088 225.753084 350.950631 227.698763 C 350.624705 229.646912 350.027175 231.506171 349.160508 233.279011 C 345.859273 240.229628 338.160507 251.419752 324.069149 245.799999 " stroke="#191919" stroke-width="4" stroke-opacity="1" stroke-miterlimit="10"/><path stroke-linecap="round" transform="matrix(1.575293, -0.145858, 0.145858, 1.575293, -37.699799, 50.134587)" fill="none" stroke-linejoin="miter" d="M 345.631043 273.590753 C 345.630953 274.44872 345.606277 275.304411 345.559474 276.158052 C 345.510212 277.011467 345.439049 277.860373 345.343756 278.702086 C 345.250922 279.544027 345.131953 280.373629 344.991312 281.196265 C 344.850899 282.016442 344.68681 282.824509 344.501959 283.615775 C 344.314422 284.409271 344.10881 285.183737 343.879978 285.941174 C 343.648686 286.698383 343.399775 287.431644 343.130329 288.145646 C 342.860884 288.859647 342.571587 289.547014 342.264671 290.210432 C 341.955295 290.873622 341.628528 291.510405 341.287281 292.116091 C 340.943349 292.724008 340.582706 293.298141 340.207358 293.843637 C 339.832237 294.386673 339.442638 294.898613 339.039015 295.374538 C 338.635392 295.850464 338.219978 296.293062 337.790767 296.697186 C 337.361556 297.101311 336.923467 297.467418 336.474041 297.79528 C 336.027074 298.12337 335.568769 298.413215 335.104273 298.662811 C 334.640004 298.909948 334.169315 299.119296 333.692662 299.285936 C 333.215781 299.455035 332.738081 299.579424 332.254188 299.663564 C 331.770296 299.747704 331.285356 299.789592 330.799369 299.789229 C 330.313382 299.788865 329.828578 299.748936 329.345414 299.664524 C 328.86225 299.580112 328.382955 299.453904 327.907531 299.285899 C 327.42942 299.120125 326.960325 298.910551 326.494871 298.661639 C 326.029418 298.412727 325.572524 298.124933 325.124417 297.795797 C 324.676311 297.466662 324.236536 297.101102 323.810238 296.697115 C 323.381482 296.2929 322.963744 295.850031 322.561486 295.373879 C 322.156769 294.897499 321.767532 294.387837 321.391545 293.842206 C 321.01533 293.299034 320.657054 292.722807 320.31403 292.115756 C 319.971006 291.508705 319.645466 290.873517 319.337409 290.210191 C 319.029352 289.546865 318.738324 288.860319 318.469696 288.14609 C 318.198609 287.431634 317.94924 286.696872 317.721589 285.941803 C 317.491707 285.184048 317.285774 284.408672 317.098872 283.615221 C 316.911743 282.824229 316.748562 282.015617 316.608875 281.194302 C 316.466502 280.375217 316.35008 279.543658 316.254466 278.701627 C 316.161311 277.859823 316.088507 277.012464 316.0412 276.157548 C 315.993666 275.30509 315.968942 274.447305 315.969032 273.589338 C 315.969121 272.731371 315.993797 271.87568 316.040601 271.022039 C 316.089863 270.168624 316.161025 269.319718 316.25386 268.477777 C 316.349153 267.636064 316.468122 266.806462 316.608763 265.983826 C 316.749176 265.163649 316.913265 264.355582 317.098116 263.564316 C 317.285652 262.77082 317.491265 261.996354 317.720097 261.238917 C 317.94893 260.48148 318.2003 259.748447 318.469745 259.034445 C 318.739191 258.320444 319.028487 257.633077 319.335404 256.969659 C 319.644779 256.306469 319.969089 255.669458 320.312794 255.064 C 320.656726 254.456083 321.017369 253.88195 321.392717 253.336454 C 321.767838 252.793418 322.157437 252.281478 322.56106 251.805553 C 322.964682 251.329627 323.380097 250.887029 323.809308 250.482905 C 324.238519 250.07878 324.676608 249.712673 325.123575 249.384583 C 325.573001 249.056721 326.031305 248.766876 326.495802 248.51728 C 326.960071 248.270143 327.43076 248.060795 327.907413 247.894155 C 328.384294 247.725056 328.861994 247.600667 329.345887 247.516527 C 329.829779 247.432387 330.314719 247.390499 330.800706 247.390862 C 331.286693 247.391226 331.771496 247.431155 332.254661 247.515567 C 332.737825 247.599979 333.217119 247.726187 333.692544 247.894192 C 334.170654 248.059966 334.63975 248.26954 335.105204 248.518452 C 335.570657 248.767364 336.027551 249.055158 336.475657 249.384294 C 336.923764 249.713429 337.363539 250.078989 337.789836 250.482976 C 338.218593 250.887191 338.636331 251.33006 339.038589 251.806212 C 339.443306 252.282592 339.832543 252.792254 340.20853 253.337885 C 340.584745 253.881057 340.943021 254.457284 341.286045 255.064335 C 341.629069 255.671386 341.954609 256.306574 342.262666 256.9699 C 342.570723 257.633226 342.861751 258.319772 343.130379 259.034001 C 343.401466 259.748457 343.650835 260.483219 343.878486 261.238288 C 344.108368 261.996043 344.314301 262.771419 344.501202 263.56487 C 344.685873 264.355634 344.851512 265.164474 344.991427 265.983331 C 345.133573 266.804874 345.249994 267.636433 345.345609 268.478464 C 345.438764 269.320268 345.511568 270.167627 345.558875 271.022543 C 345.606409 271.875001 345.631133 272.732786 345.631043 273.590753 Z M 345.631043 273.590753 " stroke="#ffffff" stroke-width="4" stroke-opacity="1" stroke-miterlimit="10"/><path stroke-linecap="round" transform="matrix(1.582031, 0, 0, 1.582031, 0.0000035, 0.00002)" fill-opacity="1" fill="#ffffff" fill-rule="nonzero" stroke-linejoin="miter" d="M 186.279019 201.750614 C 186.279019 201.750614 169.279018 195.459256 165.279018 210.61975 C 164.797536 212.5358 164.597536 214.481479 164.681487 216.454318 C 164.762968 218.429627 165.120993 220.350615 165.760499 222.219751 C 168.180253 229.520986 174.469142 241.580246 189.111118 237.740739 " stroke="#191919" stroke-width="4" stroke-opacity="1" stroke-miterlimit="10"/><path stroke-linecap="round" transform="matrix(1.582031, 0, 0, 1.582031, 0.0000035, 0.00002)" fill-opacity="1" fill="#ffffff" fill-rule="nonzero" stroke-linejoin="miter" d="M 107.698768 437.229637 C 107.698768 437.229637 98.200002 393.229635 155.600005 366.590128 C 155.600005 366.590128 219.649391 330.590126 224.980255 327.940743 C 224.980255 327.940743 254.301244 315.501237 286.2889 327.940743 L 371.849398 373.259264 C 371.849398 373.259264 409.800017 395.469142 404.469152 437.259267 Z M 107.698768 437.229637 " stroke="#191919" stroke-width="4" stroke-opacity="1" stroke-miterlimit="10"/><path stroke-linecap="round" transform="matrix(1.582031, 0, 0, 1.582031, 0.0000035, 0.00002)" fill-opacity="1" fill="#ffffff" fill-rule="nonzero" stroke-linejoin="miter" d="M 221.409885 331.740744 L 221.409885 292.498766 L 290.8889 292.498766 L 290.8889 331.740744 " stroke="#191919" stroke-width="4" stroke-opacity="1" stroke-miterlimit="10"/><path fill="#f0208c" d="M 460.195312 453.078125 C 460.195312 453.078125 402.105469 490.523438 350.277344 448.207031 L 350.277344 462.746094 C 350.277344 462.746094 404.730469 520.914062 460.195312 508.527344 Z M 460.195312 453.078125 " fill-opacity="1" fill-rule="nonzero"/><path stroke-linecap="round" transform="matrix(1.582031, 0, 0, 1.582031, 0.0000035, 0.00002)" fill-opacity="1" fill="#ffffff" fill-rule="nonzero" stroke-linejoin="miter" d="M 256.150627 313.209878 C 214.400008 311.839508 182.320994 256.629629 183.679019 214.869133 L 185.059266 172.940736 C 185.101241 171.703699 185.170377 170.466662 185.271611 169.232094 C 185.372846 167.999995 185.50371 166.767896 185.664204 165.540736 C 185.827167 164.313575 186.01729 163.091353 186.239513 161.874069 C 186.461735 160.654316 186.711118 159.444439 186.992599 158.237032 C 187.274081 157.032093 187.585192 155.834563 187.923463 154.644439 C 188.264204 153.454315 188.632105 152.271599 189.029636 151.09876 C 189.427167 149.928389 189.854328 148.765426 190.308649 147.614809 C 190.76297 146.461723 191.24692 145.323451 191.758031 144.195056 C 192.269143 143.066661 192.804945 141.95308 193.370377 140.851846 C 193.938278 139.750611 194.528402 138.664191 195.148155 137.592586 C 195.767908 136.518512 196.412353 135.464191 197.081488 134.422216 C 197.753093 133.38271 198.44939 132.358018 199.170377 131.35308 C 199.891365 130.345672 200.637044 129.358018 201.404945 128.387648 C 202.175316 127.419746 202.967908 126.469129 203.785192 125.538265 C 204.600007 124.607401 205.439514 123.696289 206.298773 122.8074 C 207.160501 121.918512 208.041983 121.049376 208.945687 120.202462 C 209.84939 119.355548 210.772847 118.533326 211.718526 117.733326 C 212.661736 116.930857 213.624699 116.153079 214.607415 115.399993 C 215.587662 114.646906 216.587662 113.918511 217.607415 113.212338 C 218.624699 112.508635 219.659267 111.829622 220.711119 111.175301 C 221.760502 110.52098 222.827169 109.89382 223.911119 109.29382 C 224.992601 108.69135 226.088897 108.116042 227.200008 107.570363 C 228.30865 107.022215 229.432107 106.501227 230.56791 106.009869 C 231.703712 105.516042 232.85186 105.051844 234.009885 104.617276 C 235.16791 104.180239 236.335811 103.772832 237.516058 103.395054 C 238.693836 103.014807 239.88149 102.666659 241.076552 102.345671 C 242.271614 102.024683 243.476552 101.735795 244.686429 101.474066 C 245.896306 101.212338 247.11112 100.980239 248.333343 100.780239 C 249.555565 100.57777 250.780256 100.40493 252.009886 100.26419 C 253.239516 100.123449 254.471615 100.012338 255.708652 99.930856 C 256.94322 99.849375 258.180257 99.799992 259.417294 99.780239 C 260.654331 99.758017 261.893837 99.770362 263.130874 99.809869 C 264.367911 99.849375 265.602479 99.92098 266.837047 100.022214 C 268.071615 100.123449 269.301245 100.254313 270.528405 100.417276 C 271.755566 100.57777 272.977788 100.770362 274.197541 100.990116 C 275.414825 101.212338 276.627171 101.46419 277.832109 101.745671 C 279.039517 102.024683 280.237048 102.335795 281.427171 102.676535 C 282.617295 103.014807 283.797542 103.385177 284.970381 103.782708 C 286.143221 104.180239 287.306184 104.6074 288.456801 105.061721 C 289.607419 105.516042 290.748159 105.999992 291.874085 106.511103 C 293.002481 107.022215 294.11853 107.560486 295.219765 108.125918 C 296.320999 108.69135 297.407419 109.283943 298.479024 109.903696 C 299.550629 110.52098 300.607419 111.165425 301.646925 111.83703 C 302.688901 112.508635 303.711123 113.204931 304.71853 113.925919 C 305.723469 114.646906 306.713592 115.392585 307.681494 116.160487 C 308.651864 116.930857 309.602481 117.72345 310.533346 118.540734 C 311.46421 119.355548 312.372852 120.195055 313.26421 121.056783 C 314.153099 121.916042 315.022235 122.799993 315.866679 123.703697 C 316.713593 124.607401 317.538284 125.530857 318.338284 126.474067 C 319.138284 127.417277 319.916062 128.38024 320.669149 129.362956 C 321.424704 130.345672 322.153099 131.345672 322.856803 132.362956 C 323.562976 133.38271 324.241988 134.417278 324.89384 135.46666 C 325.548161 136.518512 326.175322 137.585179 326.777791 138.66913 C 327.38026 139.750611 327.953099 140.846907 328.501248 141.958019 C 329.049396 143.066661 329.567914 144.190118 330.061742 145.32592 C 330.5531 146.461723 331.017297 147.609871 331.454334 148.767896 C 331.888902 149.92592 332.29631 151.096291 332.676556 152.274069 C 333.054334 153.451846 333.404952 154.639501 333.72347 155.837032 C 334.044458 157.032093 334.335816 158.234563 334.597544 159.444439 C 334.856803 160.654316 335.088902 161.8716 335.291371 163.091353 C 335.493841 164.313575 335.664211 165.538267 335.804952 166.770365 C 335.948162 167.999995 336.059273 169.232094 336.138285 170.466662 C 336.219767 171.703699 336.271618 172.938267 336.291371 174.177773 C 336.311125 175.41481 336.301248 176.651847 336.259273 177.888885 L 334.888902 219.819751 C 333.521001 261.580246 297.898777 314.580249 256.150627 313.209878 Z M 256.150627 313.209878 " stroke="#191919" stroke-width="4" stroke-opacity="1" stroke-miterlimit="10"/><path fill="#f0208c" d="M 326.058594 161.90625 C 326.058594 161.90625 287.851562 277.394531 553.554688 286.125 C 553.550781 286.125 537.890625 100.269531 326.058594 161.90625 Z M 326.058594 161.90625 " fill-opacity="1" fill-rule="nonzero"/><path fill="#f0208c" d="M 267.664062 567.664062 C 267.664062 567.664062 415.996094 628.414062 546.511719 567.570312 C 546.511719 567.570312 589.039062 587.691406 602.199219 600.886719 C 602.199219 600.886719 644.914062 627.78125 639.882812 691.710938 L 170.382812 691.710938 C 170.382812 691.710938 158.566406 629.539062 226.5 590.460938 Z M 267.664062 567.664062 " fill-opacity="1" fill-rule="nonzero"/><path fill="#f0208c" d="M 454.328125 336.402344 C 454.328125 337.113281 454.277344 337.816406 454.179688 338.511719 C 454.078125 339.207031 453.933594 339.882812 453.738281 340.539062 C 453.542969 341.195312 453.304688 341.816406 453.023438 342.40625 C 452.742188 342.996094 452.421875 343.542969 452.0625 344.042969 C 451.703125 344.546875 451.3125 344.992188 450.890625 345.386719 C 450.46875 345.78125 450.019531 346.113281 449.550781 346.386719 C 449.082031 346.65625 448.597656 346.863281 448.101562 347 C 447.601562 347.140625 447.097656 347.207031 446.589844 347.207031 C 446.082031 347.207031 445.582031 347.140625 445.082031 347 C 444.585938 346.863281 444.101562 346.65625 443.632812 346.386719 C 443.160156 346.113281 442.714844 345.78125 442.292969 345.386719 C 441.871094 344.992188 441.480469 344.546875 441.121094 344.042969 C 440.761719 343.542969 440.441406 342.996094 440.160156 342.40625 C 439.875 341.816406 439.636719 341.195312 439.445312 340.539062 C 439.25 339.882812 439.101562 339.207031 439.003906 338.511719 C 438.90625 337.816406 438.855469 337.113281 438.855469 336.402344 C 438.855469 335.695312 438.90625 334.992188 439.003906 334.296875 C 439.101562 333.597656 439.25 332.921875 439.445312 332.269531 C 439.636719 331.613281 439.875 330.988281 440.160156 330.398438 C 440.441406 329.808594 440.761719 329.265625 441.121094 328.761719 C 441.480469 328.261719 441.871094 327.8125 442.292969 327.417969 C 442.714844 327.023438 443.160156 326.691406 443.632812 326.421875 C 444.101562 326.148438 444.585938 325.945312 445.082031 325.804688 C 445.582031 325.667969 446.082031 325.597656 446.589844 325.597656 C 447.097656 325.597656 447.601562 325.667969 448.101562 325.804688 C 448.597656 325.945312 449.082031 326.148438 449.550781 326.421875 C 450.019531 326.691406 450.46875 327.023438 450.890625 327.417969 C 451.3125 327.8125 451.703125 328.261719 452.0625 328.761719 C 452.421875 329.265625 452.742188 329.808594 453.023438 330.398438 C 453.304688 330.988281 453.542969 331.613281 453.738281 332.269531 C 453.933594 332.921875 454.078125 333.597656 454.179688 334.296875 C 454.277344 334.992188 454.328125 335.695312 454.328125 336.402344 Z M 454.328125 336.402344 " fill-opacity="1" fill-rule="nonzero"/><path fill="#f0208c" d="M 355.765625 325.597656 C 355.765625 326.308594 355.71875 327.011719 355.617188 327.707031 C 355.519531 328.402344 355.371094 329.078125 355.179688 329.734375 C 354.984375 330.386719 354.746094 331.011719 354.464844 331.601562 C 354.179688 332.191406 353.859375 332.738281 353.5 333.238281 C 353.140625 333.738281 352.75 334.1875 352.328125 334.582031 C 351.90625 334.976562 351.460938 335.308594 350.992188 335.582031 C 350.523438 335.851562 350.039062 336.058594 349.539062 336.195312 C 349.042969 336.332031 348.539062 336.402344 348.03125 336.402344 C 347.523438 336.402344 347.019531 336.332031 346.523438 336.195312 C 346.023438 336.058594 345.539062 335.851562 345.070312 335.582031 C 344.601562 335.308594 344.15625 334.976562 343.734375 334.582031 C 343.3125 334.1875 342.921875 333.738281 342.5625 333.238281 C 342.203125 332.738281 341.882812 332.191406 341.597656 331.601562 C 341.316406 331.011719 341.078125 330.386719 340.882812 329.734375 C 340.6875 329.078125 340.542969 328.402344 340.445312 327.707031 C 340.34375 327.011719 340.292969 326.308594 340.296875 325.597656 C 340.292969 324.886719 340.34375 324.1875 340.445312 323.488281 C 340.542969 322.792969 340.6875 322.117188 340.882812 321.460938 C 341.078125 320.808594 341.316406 320.183594 341.597656 319.59375 C 341.882812 319.003906 342.203125 318.460938 342.5625 317.957031 C 342.921875 317.457031 343.3125 317.007812 343.734375 316.613281 C 344.15625 316.21875 344.601562 315.886719 345.070312 315.613281 C 345.539062 315.34375 346.023438 315.136719 346.523438 315 C 347.019531 314.863281 347.523438 314.792969 348.03125 314.792969 C 348.539062 314.792969 349.042969 314.863281 349.539062 315 C 350.039062 315.136719 350.523438 315.34375 350.992188 315.613281 C 351.460938 315.886719 351.90625 316.21875 352.328125 316.613281 C 352.75 317.007812 353.140625 317.457031 353.5 317.957031 C 353.859375 318.460938 354.179688 319.003906 354.464844 319.59375 C 354.746094 320.183594 354.984375 320.808594 355.179688 321.460938 C 355.371094 322.117188 355.519531 322.792969 355.617188 323.488281 C 355.71875 324.1875 355.765625 324.886719 355.765625 325.597656 Z M 355.765625 325.597656 " fill-opacity="1" fill-rule="nonzero"/><path stroke-linecap="round" transform="matrix(1.582031, 0, 0, 1.582031, 0.0000035, 0.00002)" fill="none" stroke-linejoin="miter" d="M 275.069146 187.73086 C 275.069146 187.73086 295.269147 184.619749 306.721 202.879009 " stroke="#191919" stroke-width="4" stroke-opacity="1" stroke-miterlimit="10"/><path stroke-linecap="round" transform="matrix(1.582031, 0, 0, 1.582031, 0.0000035, 0.00002)" fill="none" stroke-linejoin="miter" d="M 239.219762 184.16049 C 239.219762 184.16049 216.790131 176.380242 200.760501 193.649379 " stroke="#191919" stroke-width="4" stroke-opacity="1" stroke-miterlimit="10"/><path stroke-linecap="round" transform="matrix(1.582031, 0, 0, 1.582031, 0.0000035, 0.00002)" fill="none" stroke-linejoin="miter" d="M 254.520997 243.170369 C 254.520997 243.170369 228.409885 241.530863 248.029639 225.730862 C 248.029639 225.730862 256.20001 219.199998 256.74075 211.01975 " stroke="#191919" stroke-width="4" stroke-opacity="1" stroke-miterlimit="10"/><path stroke-linecap="round" transform="matrix(0.182383, -1.571483, 1.571483, 0.182383, -166.87266, 644.9625)" fill="none" stroke-linejoin="miter" d="M 202.309776 263.04907 C 202.308938 263.491623 202.267719 263.92892 202.184519 264.368604 C 202.098582 264.80612 201.975001 265.240547 201.806418 265.67274 C 201.637835 266.104933 201.431323 266.531585 201.181978 266.953266 C 200.932632 267.374946 200.645357 267.791086 200.314679 268.197349 C 199.986454 268.603327 199.620016 269.001311 199.215364 269.391302 C 198.81288 269.778556 198.371898 270.155363 197.894871 270.521439 C 197.417844 270.887516 196.907224 271.242576 196.362442 271.581716 C 195.817945 271.923309 195.241738 272.248696 194.63656 272.560045 C 194.028929 272.871679 193.394494 273.166538 192.731087 273.44736 C 192.067395 273.725729 191.379637 273.989491 190.66479 274.234026 C 189.952396 274.478276 189.218103 274.705182 188.461627 274.912291 C 187.702698 275.119684 186.928944 275.306427 186.135744 275.475541 C 185.342544 275.644655 184.536972 275.792833 183.716574 275.920361 C 182.893724 276.048174 182.063406 276.154481 181.221001 276.242306 C 180.380763 276.327394 179.533059 276.390976 178.678171 276.435507 C 177.823 276.477585 176.968003 276.499757 176.110445 276.499855 C 175.252887 276.499953 174.395219 276.477692 173.542632 276.434956 C 172.687593 276.392504 171.839803 276.32684 170.999546 276.240416 C 170.15712 276.156729 169.32685 276.049261 168.504112 275.921032 C 167.683827 275.792518 166.876266 275.645128 166.083596 275.476124 C 165.290927 275.30712 164.515886 275.11867 163.758474 274.910775 C 163.003799 274.705047 162.266468 274.47742 161.554409 274.231947 C 160.840182 273.98921 160.153394 273.72589 159.48971 273.447459 C 158.825741 273.166575 158.190066 272.872466 157.584568 272.559939 C 156.976901 272.25015 156.402149 271.924112 155.857858 271.582111 C 155.313852 271.242562 154.803044 270.889218 154.325436 270.522077 C 153.848112 270.15739 153.408892 269.778337 153.00344 269.390394 C 152.600441 269.002166 152.233663 268.604763 151.905558 268.1979 C 151.575001 267.791322 151.288022 267.374714 151.037834 266.953837 C 150.790098 266.532676 150.581605 266.106959 150.414523 265.673952 C 150.244988 265.241228 150.119886 264.805834 150.036764 264.368053 C 149.951189 263.930557 149.910047 263.49039 149.91117 263.050289 C 149.90984 262.610473 149.953227 262.170439 150.036427 261.730755 C 150.119911 261.293524 150.245945 260.858812 150.414528 260.426619 C 150.580658 259.994711 150.789623 259.567774 151.038969 259.146093 C 151.288314 258.724413 151.575874 258.310726 151.903814 257.902295 C 152.232039 257.496317 152.598478 257.098333 153.003414 256.710794 C 153.408066 256.320804 153.849048 255.943996 154.326075 255.57792 C 154.803103 255.211844 155.313722 254.856783 155.856052 254.517928 C 156.400549 254.176335 156.976755 253.850948 157.584386 253.539314 C 158.189565 253.227965 158.826452 252.932821 159.489859 252.651999 C 160.151098 252.373915 160.841594 252.112321 161.553704 251.865618 C 162.268551 251.621083 163.003128 251.39663 163.759319 251.187069 C 164.515796 250.97996 165.292002 250.792932 166.082749 250.624103 C 166.875949 250.454989 167.683974 250.306526 168.504372 250.178998 C 169.32477 250.05147 170.15754 249.944878 170.997493 249.857338 C 171.840183 249.771966 172.687888 249.708383 173.542775 249.663852 C 174.395494 249.622059 175.252943 249.599602 176.110501 249.599504 C 176.96806 249.599406 177.823274 249.621952 178.678314 249.664403 C 179.5309 249.707139 180.378691 249.772804 181.221401 249.858943 C 182.06411 249.945083 182.894097 250.050099 183.714381 250.178612 C 184.537119 250.306841 185.342227 250.454515 186.13735 250.623235 C 186.93002 250.792239 187.70506 250.980689 188.46002 251.188869 C 189.217432 251.396765 189.952025 251.622223 190.666537 251.867412 C 191.378312 252.110433 192.067552 252.37347 192.731236 252.6519 C 193.395205 252.932784 194.028428 253.227178 194.636379 253.53942 C 195.241877 253.851946 195.819082 254.177699 196.363088 254.517248 C 196.907095 254.856797 197.417902 255.210141 197.895511 255.577282 C 198.370667 255.944707 198.812054 256.321022 199.215053 256.70925 C 199.620505 257.097194 199.987568 257.497049 200.315672 257.903912 C 200.643777 258.310775 200.932924 258.724645 201.18066 259.145807 C 201.430848 259.566684 201.639626 259.994852 201.806423 260.425408 C 201.973506 260.858415 202.098608 261.29381 202.184182 261.731306 C 202.267305 262.169086 202.310899 262.608969 202.309776 263.04907 Z M 202.309776 263.04907 " stroke="#ffffff" stroke-width="4" stroke-opacity="1" stroke-miterlimit="10"/><path stroke-linecap="round" transform="matrix(1.582031, 0, 0, 1.582031, 0.0000035, 0.00002)" fill-opacity="1" fill="#ffffff" fill-rule="nonzero" stroke-linejoin="miter" d="M 107.200003 432.370378 C 107.200003 432.370378 161.698771 425.980254 157.869141 367.160498 C 157.869141 367.160498 107.200003 386.049388 107.200003 432.370378 Z M 107.200003 432.370378 " stroke="#191919" stroke-width="4" stroke-opacity="1" stroke-miterlimit="10"/><path stroke-linecap="round" transform="matrix(1.582031, 0, 0, 1.582031, 0.0000035, 0.00002)" fill-opacity="1" fill="#ffffff" fill-rule="nonzero" stroke-linejoin="miter" d="M 404.721004 430.600007 C 404.721004 430.600007 353.400014 424.209884 357.229644 365.390128 C 357.229644 365.390128 404.000017 382.000005 404.721004 430.600007 Z M 404.721004 430.600007 " stroke="#191919" stroke-width="4" stroke-opacity="1" stroke-miterlimit="10"/><g mask="url(#dfb9b96355)"><g transform="matrix(1, 0, 0, 1, 395, 404)"><g clip-path="url(#bd454f1b74)"><g clip-path="url(#c191195b87)"><path fill="#f0208c" d="M 39.820312 10.601562 C 40.816406 16.835938 32.828125 23.257812 21.960938 25.03125 C 11.089844 26.804688 0.507812 23.257812 0.507812 16.898438 C 0.507812 -1.230469 15.820312 8.136719 18.589844 5.398438 C 25.644531 -1.546875 38.824219 4.371094 39.820312 10.601562 Z M 39.820312 10.601562 " fill-opacity="1" fill-rule="nonzero"/></g></g></g></g><path stroke-linecap="round" transform="matrix(1.582031, 0, 0, 1.582031, 0.0000035, 0.00002)" fill="none" stroke-linejoin="miter" d="M 274.888899 259.879012 C 274.888899 259.879012 265.079022 266.780247 248.730874 264.059259 " stroke="#191919" stroke-width="4" stroke-opacity="1" stroke-miterlimit="10"/></svg>