<svg xmlns="http://www.w3.org/2000/svg" width="33" height="43" viewBox="0 0 33 43">
  <title>Female</title>
  <g>
    <path d="M16.5,25A12.5,12.5,0,1,1,29,12.5,12.514,12.514,0,0,1,16.5,25Zm0-22A9.5,9.5,0,1,0,26,12.5,9.511,9.511,0,0,0,16.5,3Z" fill="#3e4166"/>
    <path d="M26.5,14c-.039,0-.078,0-.117,0A19.351,19.351,0,0,1,18.8,11.827a19.158,19.158,0,0,1-3.256-2.17,1.5,1.5,0,0,1,1.91-2.314A16.183,16.183,0,0,0,20.2,9.173,16.37,16.37,0,0,0,26.615,11a1.5,1.5,0,0,1-.113,3Z" fill="#3e4166"/>
    <path d="M6.5,14a1.5,1.5,0,0,1-.114-3A16.365,16.365,0,0,0,12.8,9.173a16.183,16.183,0,0,0,2.744-1.83,1.5,1.5,0,0,1,1.91,2.314,19.158,19.158,0,0,1-3.256,2.17A19.347,19.347,0,0,1,6.615,14C6.576,14,6.537,14,6.5,14Z" fill="#3e4166"/>
    <path d="M29.5,25H3.5a1.5,1.5,0,0,1-1.394-2.053,27.124,27.124,0,0,0,.947-2.842A27.263,27.263,0,0,0,4,12.522,1.5,1.5,0,0,1,5.478,11,1.528,1.528,0,0,1,7,12.478a30.309,30.309,0,0,1-1.053,8.416c-.1.37-.209.739-.324,1.106H27.378q-.174-.55-.325-1.105A30.32,30.32,0,0,1,26,12.478,1.5,1.5,0,0,1,27.5,11h.022A1.5,1.5,0,0,1,29,12.522a27.312,27.312,0,0,0,.947,7.584,26.959,26.959,0,0,0,.948,2.841A1.5,1.5,0,0,1,29.5,25Z" fill="#3e4166"/>
    <path d="M31.5,43a1.5,1.5,0,0,1-1.423-1.026l-2.632-7.9A4.5,4.5,0,0,0,23.175,31H9.825a4.5,4.5,0,0,0-4.27,3.077L3.581,40H20.547a1.5,1.5,0,0,1,0,3H1.5A1.5,1.5,0,0,1,.077,41.026l2.633-7.9A7.489,7.489,0,0,1,9.825,28h13.35a7.492,7.492,0,0,1,7.116,5.128l2.632,7.9a1.5,1.5,0,0,1-.949,1.9A1.479,1.479,0,0,1,31.5,43Z" fill="#3e4166"/>
    <path d="M25.06,43a1.5,1.5,0,0,1-.29-.03,1.309,1.309,0,0,1-.28-.09,1.264,1.264,0,0,1-.26-.13,2.11,2.11,0,0,1-.23-.19,1.5,1.5,0,0,1-.44-1.06A1.516,1.516,0,0,1,24,40.44a2.11,2.11,0,0,1,.23-.19,1.264,1.264,0,0,1,.26-.13,1.309,1.309,0,0,1,.28-.09,1.465,1.465,0,0,1,.59,0,1.518,1.518,0,0,1,.28.09,1.577,1.577,0,0,1,.26.13,2,2,0,0,1,.22.19,1.516,1.516,0,0,1,.44,1.06,1.5,1.5,0,0,1-.44,1.06,2,2,0,0,1-.22.19,1.577,1.577,0,0,1-.26.13,1.412,1.412,0,0,1-.58.12Z" fill="#3e4166"/>
  </g>
</svg>
