<svg xmlns="http://www.w3.org/2000/svg" xmlns:xlink="http://www.w3.org/1999/xlink" width="1080" zoomAndPan="magnify" viewBox="0 0 810 809.999993" height="1080" preserveAspectRatio="xMidYMid meet" version="1.0"><defs><filter x="0%" y="0%" width="100%" height="100%" id="353e031a62"><feColorMatrix values="0 0 0 0 1 0 0 0 0 1 0 0 0 0 1 0 0 0 1 0" color-interpolation-filters="sRGB"/></filter><mask id="845cf12257"><g filter="url(#353e031a62)"><rect x="-81" width="972" fill="#000000" y="-80.999999" height="971.999992" fill-opacity="0.25"/></g></mask><clipPath id="0ac4c4a223"><path d="M 1 1 L 173 1 L 173 56.441406 L 1 56.441406 Z M 1 1 " clip-rule="nonzero"/></clipPath><clipPath id="29b3175d68"><rect x="0" width="174" y="0" height="57"/></clipPath><mask id="4e6f9df4bf"><g filter="url(#353e031a62)"><rect x="-81" width="972" fill="#000000" y="-80.999999" height="971.999992" fill-opacity="0.25"/></g></mask><clipPath id="ec1d5071a3"><rect x="0" width="107" y="0" height="24"/></clipPath></defs><path fill="#1798e0" d="M 535.515625 334.773438 L 546.875 273.691406 C 557.347656 217.339844 528.746094 160.339844 476.507812 136.734375 C 474.734375 135.929688 472.933594 135.152344 471.066406 134.363281 C 471.066406 134.363281 379.671875 97.976562 345.707031 157.792969 C 345.707031 157.792969 291.472656 146.605469 270.070312 203.90625 C 268.546875 208.109375 267.308594 212.394531 266.347656 216.757812 C 265.390625 221.121094 264.722656 225.53125 264.34375 229.984375 C 263.964844 234.4375 263.878906 238.894531 264.082031 243.359375 C 264.289062 247.824219 264.785156 252.253906 265.574219 256.652344 L 278.910156 334.726562 C 278.910156 334.726562 411.328125 451.9375 535.515625 334.773438 Z M 535.515625 334.773438 " fill-opacity="1" fill-rule="nonzero"/><path stroke-linecap="round" transform="matrix(1.582031, 0, 0, 1.582031, 0.0000035, 0.00002)" fill-opacity="1" fill="#ffffff" fill-rule="nonzero" stroke-linejoin="miter" d="M 184.330871 198.469132 C 184.330871 198.469132 167.33087 192.180243 163.33087 207.340738 C 162.84445 209.254318 162.641981 211.199997 162.723462 213.175306 C 162.804944 215.150615 163.167907 217.071602 163.809882 218.940738 C 166.229635 226.239504 172.520993 238.301233 187.1605 234.459258 " stroke="#191919" stroke-width="4" stroke-opacity="1" stroke-miterlimit="10"/><path stroke-linecap="round" transform="matrix(1.582031, 0, 0, 1.582031, 0.0000035, 0.00002)" fill-opacity="1" fill="#ffffff" fill-rule="nonzero" stroke-linejoin="miter" d="M 328.80989 199.999997 C 328.80989 199.999997 345.940755 194.16049 349.570384 209.41975 C 350.004952 211.348145 350.15557 213.296294 350.022236 215.266664 C 349.891372 217.237035 349.479026 219.148146 348.790137 220.999998 C 346.180261 228.239504 339.58026 240.130863 325.039519 235.911109 " stroke="#191919" stroke-width="4" stroke-opacity="1" stroke-miterlimit="10"/><path stroke-linecap="round" transform="matrix(1.582031, 0, 0, 1.582031, 0.0000035, 0.00002)" fill-opacity="1" fill="#ffffff" fill-rule="nonzero" stroke-linejoin="miter" d="M 107.649386 434.000008 C 107.649386 434.000008 98.160496 390.000005 155.550622 363.360498 C 155.550622 363.360498 219.609885 327.360496 224.940749 324.711114 C 224.940749 324.711114 254.259269 312.269138 286.249394 324.711114 L 371.800015 370.000005 C 371.800015 370.000005 409.750634 392.209882 404.41977 434.000008 Z M 107.649386 434.000008 " stroke="#191919" stroke-width="4" stroke-opacity="1" stroke-miterlimit="10"/><path stroke-linecap="round" transform="matrix(1.582031, 0, 0, 1.582031, 0.0000035, 0.00002)" fill-opacity="1" fill="#ffffff" fill-rule="nonzero" stroke-linejoin="miter" d="M 221.360502 328.469138 L 221.360502 289.219754 L 290.849394 289.219754 L 290.849394 328.469138 " stroke="#191919" stroke-width="4" stroke-opacity="1" stroke-miterlimit="10"/><path fill="#1798e0" d="M 460.132812 447.90625 C 460.132812 447.90625 402.027344 485.335938 350.199219 443.015625 L 350.199219 457.554688 C 350.199219 457.554688 404.667969 515.726562 460.132812 503.355469 Z M 460.132812 447.90625 " fill-opacity="1" fill-rule="nonzero"/><path stroke-linecap="round" transform="matrix(1.582031, 0, 0, 1.582031, 0.0000035, 0.00002)" fill-opacity="1" fill="#ffffff" fill-rule="nonzero" stroke-linejoin="miter" d="M 256.101244 309.930866 C 214.330872 309.629631 180.859265 255.249382 181.1605 213.469133 L 181.469142 171.469131 C 181.479019 170.232094 181.518525 168.995057 181.587661 167.75802 C 181.656796 166.523452 181.758031 165.288884 181.888895 164.059254 C 182.01729 162.827155 182.177784 161.599995 182.370377 160.377773 C 182.5605 159.153081 182.780253 157.935797 183.029636 156.723451 C 183.281488 155.511106 183.5605 154.306167 183.869142 153.106167 C 184.180253 151.908636 184.518525 150.718513 184.886426 149.535797 C 185.254327 148.35555 185.651858 147.18271 186.07655 146.019747 C 186.501241 144.856784 186.955562 143.706167 187.437044 142.565426 C 187.918525 141.424685 188.429636 140.29629 188.967908 139.18271 C 189.50371 138.06666 190.069142 136.965426 190.659266 135.879006 C 191.251859 134.790117 191.869143 133.718512 192.513587 132.661722 C 193.158031 131.604932 193.827167 130.562956 194.523464 129.538265 C 195.217291 128.513574 195.938279 127.508635 196.681488 126.518512 C 197.427167 125.530857 198.195069 124.560487 198.987661 123.60987 C 199.780254 122.656783 200.595069 121.725919 201.432106 120.814808 C 202.271612 119.903697 203.130871 119.014808 204.012353 118.145672 C 204.893834 117.276536 205.797538 116.429622 206.720995 115.604931 C 207.644452 114.78024 208.587662 113.97777 209.548156 113.199993 C 210.511119 112.422215 211.493835 111.666659 212.491366 110.938264 C 213.491366 110.2074 214.50865 109.501227 215.543218 108.822215 C 216.577786 108.140733 217.627168 107.486412 218.693835 106.859252 C 219.760502 106.229622 220.841983 105.627153 221.93828 105.051844 C 223.034576 104.476535 224.143218 103.928387 225.266675 103.4074 C 226.390132 102.886412 227.523465 102.392585 228.671613 101.925918 C 229.819762 101.46172 230.977786 101.024683 232.145688 100.614807 C 233.313589 100.207399 234.491367 99.827152 235.679021 99.476535 C 236.866675 99.125918 238.061737 98.80493 239.264206 98.513572 C 240.466676 98.219745 241.676552 97.958017 242.893836 97.725918 C 244.108651 97.493819 245.328404 97.29135 246.555565 97.11851 C 247.780256 96.945671 249.009886 96.802461 250.244454 96.69135 C 251.476553 96.57777 252.711121 96.496288 253.948158 96.444436 C 255.185195 96.392584 256.422232 96.370362 257.659269 96.380239 C 258.898775 96.390115 260.135812 96.429621 261.37038 96.498757 C 262.607417 96.567893 263.839516 96.669128 265.071615 96.799992 C 266.303714 96.928387 267.530874 97.088881 268.753097 97.281473 C 269.975319 97.471597 271.195072 97.69135 272.407418 97.943202 C 273.619764 98.192585 274.824702 98.471597 276.022233 98.782708 C 277.222233 99.09135 278.412356 99.432091 279.595073 99.799992 C 280.775319 100.167893 281.948159 100.562955 283.111122 100.990116 C 284.274085 101.414807 285.424702 101.869128 286.565443 102.350609 C 287.706184 102.83456 288.834579 103.343202 289.948159 103.881474 C 291.064209 104.417276 292.165443 104.982708 293.251863 105.575301 C 294.340752 106.165424 295.412357 106.785178 296.469147 107.427153 C 297.525938 108.071597 298.567913 108.743202 299.592604 109.437029 C 300.617296 110.133326 301.622234 110.854314 302.612358 111.597523 C 303.600012 112.343202 304.570382 113.111104 305.521 113.903696 C 306.474086 114.696289 307.40495 115.511104 308.316062 116.348141 C 309.227173 117.187647 310.116062 118.046906 310.985197 118.928388 C 311.854333 119.809869 312.701247 120.713573 313.525938 121.63703 C 314.35063 122.560487 315.153099 123.503697 315.930877 124.46666 C 316.708654 125.429623 317.46421 126.40987 318.192605 127.40987 C 318.923469 128.40987 319.629642 129.427154 320.308655 130.461722 C 320.990136 131.49629 321.644457 132.545673 322.271618 133.612339 C 322.901247 134.679006 323.503717 135.760488 324.079025 136.856784 C 324.654334 137.95308 325.202482 139.061722 325.72347 140.185179 C 326.244457 141.308636 326.738285 142.441969 327.202482 143.590117 C 327.669149 144.738266 328.106186 145.89629 328.513593 147.064192 C 328.92347 148.232093 329.303717 149.409871 329.654334 150.597525 C 330.004951 151.78518 330.325939 152.980241 330.617297 154.182711 C 330.908655 155.387649 331.172853 156.595056 331.404951 157.81234 C 331.63705 159.027155 331.839519 160.249378 332.012359 161.474069 C 332.185198 162.701229 332.328408 163.930859 332.439519 165.162958 C 332.5531 166.395057 332.634581 167.629625 332.686433 168.866662 C 332.738285 170.103699 332.758038 171.343205 332.750631 172.580242 L 332.449396 214.530862 C 332.140754 256.350617 297.879024 310.239508 256.101244 309.930866 Z M 256.101244 309.930866 " stroke="#191919" stroke-width="4" stroke-opacity="1" stroke-miterlimit="10"/><path fill="#1798e0" d="M 317.988281 185.367188 C 317.988281 185.367188 462.109375 293.339844 538.570312 263.425781 C 538.570312 263.425781 558.726562 244.914062 526.453125 205.632812 C 476.097656 144.390625 389.703125 112.53125 317.988281 185.367188 Z M 317.988281 185.367188 " fill-opacity="1" fill-rule="nonzero"/><path fill="#1798e0" d="M 329.457031 528.128906 C 329.457031 528.128906 405.160156 617.230469 480.875 528.128906 C 480.875 528.128906 588.972656 582.519531 602.121094 595.699219 C 602.121094 595.699219 644.835938 622.59375 639.804688 686.523438 L 170.304688 686.523438 C 170.304688 686.523438 158.503906 624.363281 226.421875 585.273438 Z M 329.457031 528.128906 " fill-opacity="1" fill-rule="nonzero"/><path fill="#1798e0" d="M 357.648438 314.730469 C 357.648438 315.4375 357.601562 316.140625 357.5 316.835938 C 357.402344 317.53125 357.253906 318.207031 357.0625 318.863281 C 356.867188 319.519531 356.628906 320.140625 356.347656 320.730469 C 356.0625 321.320312 355.742188 321.867188 355.382812 322.371094 C 355.023438 322.871094 354.632812 323.320312 354.210938 323.714844 C 353.789062 324.109375 353.34375 324.441406 352.875 324.710938 C 352.40625 324.984375 351.921875 325.1875 351.421875 325.328125 C 350.925781 325.464844 350.421875 325.535156 349.914062 325.535156 C 349.40625 325.535156 348.902344 325.464844 348.40625 325.328125 C 347.90625 325.1875 347.421875 324.984375 346.953125 324.710938 C 346.484375 324.441406 346.039062 324.109375 345.617188 323.714844 C 345.191406 323.320312 344.800781 322.871094 344.441406 322.371094 C 344.085938 321.867188 343.761719 321.320312 343.480469 320.730469 C 343.199219 320.140625 342.960938 319.519531 342.765625 318.863281 C 342.570312 318.207031 342.425781 317.53125 342.324219 316.835938 C 342.226562 316.140625 342.175781 315.4375 342.175781 314.730469 C 342.175781 314.019531 342.226562 313.316406 342.324219 312.621094 C 342.425781 311.925781 342.570312 311.25 342.765625 310.59375 C 342.960938 309.9375 343.199219 309.316406 343.480469 308.726562 C 343.761719 308.136719 344.085938 307.589844 344.441406 307.089844 C 344.800781 306.585938 345.191406 306.140625 345.617188 305.746094 C 346.039062 305.351562 346.484375 305.019531 346.953125 304.746094 C 347.421875 304.476562 347.90625 304.269531 348.40625 304.132812 C 348.902344 303.992188 349.40625 303.925781 349.914062 303.925781 C 350.421875 303.925781 350.925781 303.992188 351.421875 304.132812 C 351.921875 304.269531 352.40625 304.476562 352.875 304.746094 C 353.34375 305.019531 353.789062 305.351562 354.210938 305.746094 C 354.632812 306.140625 355.023438 306.585938 355.382812 307.089844 C 355.742188 307.589844 356.0625 308.136719 356.347656 308.726562 C 356.628906 309.316406 356.867188 309.9375 357.0625 310.59375 C 357.253906 311.25 357.402344 311.925781 357.5 312.621094 C 357.601562 313.316406 357.648438 314.019531 357.648438 314.730469 Z M 357.648438 314.730469 " fill-opacity="1" fill-rule="nonzero"/><path stroke-linecap="round" transform="matrix(1.582031, 0, 0, 1.582031, 0.0000035, 0.00002)" fill="none" stroke-linejoin="miter" d="M 240.409886 181.609872 C 240.409886 181.609872 219.340749 170.609872 200.980254 185.419749 " stroke="#191919" stroke-width="4" stroke-opacity="1" stroke-miterlimit="10"/><path fill="#1798e0" d="M 462.078125 314.730469 C 462.078125 315.4375 462.03125 316.140625 461.929688 316.835938 C 461.832031 317.53125 461.683594 318.207031 461.492188 318.863281 C 461.296875 319.519531 461.058594 320.140625 460.777344 320.730469 C 460.492188 321.320312 460.171875 321.867188 459.8125 322.371094 C 459.453125 322.871094 459.0625 323.320312 458.640625 323.714844 C 458.21875 324.109375 457.773438 324.441406 457.304688 324.710938 C 456.835938 324.984375 456.351562 325.1875 455.851562 325.328125 C 455.355469 325.464844 454.851562 325.535156 454.34375 325.535156 C 453.835938 325.535156 453.332031 325.464844 452.835938 325.328125 C 452.335938 325.1875 451.851562 324.984375 451.382812 324.710938 C 450.914062 324.441406 450.46875 324.109375 450.046875 323.714844 C 449.625 323.320312 449.230469 322.871094 448.875 322.371094 C 448.515625 321.867188 448.191406 321.320312 447.910156 320.730469 C 447.628906 320.140625 447.390625 319.519531 447.195312 318.863281 C 447 318.207031 446.855469 317.53125 446.757812 316.835938 C 446.65625 316.140625 446.605469 315.4375 446.605469 314.730469 C 446.605469 314.019531 446.65625 313.316406 446.757812 312.621094 C 446.855469 311.925781 447 311.25 447.195312 310.59375 C 447.390625 309.9375 447.628906 309.316406 447.910156 308.726562 C 448.191406 308.136719 448.515625 307.589844 448.875 307.089844 C 449.230469 306.585938 449.625 306.140625 450.046875 305.746094 C 450.46875 305.351562 450.914062 305.019531 451.382812 304.746094 C 451.851562 304.476562 452.335938 304.269531 452.835938 304.132812 C 453.332031 303.992188 453.835938 303.925781 454.34375 303.925781 C 454.851562 303.925781 455.355469 303.992188 455.851562 304.132812 C 456.351562 304.269531 456.835938 304.476562 457.304688 304.746094 C 457.773438 305.019531 458.21875 305.351562 458.640625 305.746094 C 459.0625 306.140625 459.453125 306.585938 459.8125 307.089844 C 460.171875 307.589844 460.492188 308.136719 460.777344 308.726562 C 461.058594 309.316406 461.296875 309.9375 461.492188 310.59375 C 461.683594 311.25 461.832031 311.925781 461.929688 312.621094 C 462.03125 313.316406 462.078125 314.019531 462.078125 314.730469 Z M 462.078125 314.730469 " fill-opacity="1" fill-rule="nonzero"/><path stroke-linecap="round" transform="matrix(1.582031, 0, 0, 1.582031, 0.0000035, 0.00002)" fill="none" stroke-linejoin="miter" d="M 271.439517 183.069132 C 271.439517 183.069132 292.570382 172.239502 310.859272 187.069132 " stroke="#191919" stroke-width="4" stroke-opacity="1" stroke-miterlimit="10"/><path stroke-linecap="round" transform="matrix(1.582031, 0, 0, 1.582031, 0.0000035, 0.00002)" fill="none" stroke-linejoin="miter" d="M 268.049393 266.459259 C 266.130874 267.271605 264.150627 267.88642 262.108652 268.303704 C 260.066677 268.720988 258.004948 268.930864 255.920997 268.935802 C 253.837047 268.940741 251.772849 268.738271 249.728404 268.328395 C 247.68396 267.920987 245.701244 267.31358 243.780256 266.511111 " stroke="#191919" stroke-width="4" stroke-opacity="1" stroke-miterlimit="10"/><path stroke-linecap="round" transform="matrix(1.582031, 0, 0, 1.582031, 0.0000035, 0.00002)" fill="none" stroke-linejoin="miter" d="M 261.869146 241.530863 C 261.869146 241.530863 248.429639 245.530863 247.659269 231.809875 C 247.34075 226.140739 251.930874 221.288887 252.960503 215.711109 C 254.409886 208.303701 255.046923 200.827157 254.869145 193.279009 " stroke="#191919" stroke-width="4" stroke-opacity="1" stroke-miterlimit="10"/><g mask="url(#845cf12257)"><g transform="matrix(1, 0, 0, 1, 319, 431)"><g clip-path="url(#29b3175d68)"><g clip-path="url(#0ac4c4a223)"><path fill="#1798e0" d="M 1.09375 1.289062 L 34.316406 1.289062 C 34.316406 1.289062 46.625 33.46875 89.6875 32.027344 C 89.6875 32.027344 128.652344 30.605469 138.902344 1.289062 L 172.554688 1.289062 C 172.554688 1.289062 135.3125 59.335938 86.125 55.917969 C 86.160156 55.917969 39.835938 59.335938 1.09375 1.289062 Z M 1.09375 1.289062 " fill-opacity="1" fill-rule="nonzero"/></g></g></g></g><g mask="url(#4e6f9df4bf)"><g transform="matrix(1, 0, 0, 1, 352, 390)"><g clip-path="url(#ec1d5071a3)"><path fill="#1798e0" d="M 11.867188 22.910156 L 1.109375 14.175781 L 19.335938 6.265625 C 23.894531 4.246094 28.632812 2.835938 33.554688 2.03125 C 38.472656 1.226562 43.417969 1.058594 48.378906 1.519531 C 51.613281 1.847656 54.84375 1.847656 58.078125 1.519531 C 65.996094 0.574219 73.792969 1.164062 81.476562 3.292969 C 90.085938 5.644531 98.035156 9.398438 105.316406 14.558594 L 93.65625 22.910156 C 93.65625 22.910156 59.21875 -1.925781 11.867188 22.910156 Z M 11.867188 22.910156 " fill-opacity="1" fill-rule="nonzero"/></g></g></g><path stroke-linecap="round" transform="matrix(1.582031, 0, 0, 1.582031, 0.0000035, 0.00002)" fill="none" stroke-linejoin="miter" d="M 347.029644 416.609883 L 292.079024 416.609883 " stroke="#ffffff" stroke-width="4" stroke-opacity="1" stroke-miterlimit="10"/></svg>