<svg width="40" height="25" viewBox="0 0 40 25" fill="none" xmlns="http://www.w3.org/2000/svg">
<path d="M27.7246 0C34.3898 0 39.793 5.44278 39.793 12.1562C39.7927 18.8695 34.3896 24.3115 27.7246 24.3115C24.7365 24.3115 22.0042 23.2152 19.8965 21.4033C17.7888 23.2152 15.0565 24.3115 12.0684 24.3115C5.40333 24.3115 0.000230774 18.8695 0 12.1562C0 5.44278 5.40319 7.26818e-06 12.0684 0C15.0562 0 17.7889 1.09563 19.8965 2.90723C22.0041 1.09562 24.7367 1.81528e-05 27.7246 0Z" fill="#ED0006"/>
<path d="M27.7246 0C34.3897 9.11079e-05 39.793 5.44283 39.793 12.1562C39.7927 18.8695 34.3896 24.3114 27.7246 24.3115C24.7365 24.3115 22.0042 23.2151 19.8965 21.4033C22.4899 19.1738 24.1366 15.8597 24.1367 12.1562C24.1367 8.45238 22.4903 5.13682 19.8965 2.90723C22.0041 1.09567 24.7368 0 27.7246 0Z" fill="#F9A000"/>
<path d="M19.8965 2.90747C22.4902 5.13702 24.1367 8.45175 24.1367 12.1555C24.1367 15.859 22.4899 19.173 19.8965 21.4026C17.3031 19.173 15.6562 15.859 15.6562 12.1555C15.6563 8.45177 17.3028 5.13702 19.8965 2.90747Z" fill="#FF5E00"/>
</svg>
