<svg width="44" height="17" viewBox="0 0 44 17" fill="none" xmlns="http://www.w3.org/2000/svg">
<path fill-rule="evenodd" clip-rule="evenodd" d="M10.943 16.4863H7.15496L4.3144 3.5963C4.17958 3.00336 3.8933 2.47917 3.47221 2.23211C2.42131 1.61124 1.26329 1.11713 0 0.867921V0.371656H6.10222C6.94441 0.371656 7.57606 1.11713 7.68133 1.9829L9.15517 11.2809L12.9414 0.371656H16.6241L10.943 16.4863ZM18.7296 16.4863H15.1521L18.098 0.371656H21.6754L18.7296 16.4863ZM26.3038 4.83589C26.4091 3.96797 27.0407 3.4717 27.7777 3.4717C28.9357 3.3471 30.1971 3.59631 31.2499 4.21502L31.8815 0.745471C30.8288 0.249206 29.6707 0 28.6199 0C25.1476 0 22.6211 2.23212 22.6211 5.33001C22.6211 7.68673 24.4107 8.92416 25.674 9.66964C27.0407 10.413 27.5671 10.9092 27.4618 11.6525C27.4618 12.7675 26.4091 13.2638 25.3582 13.2638C24.0949 13.2638 22.8316 12.8921 21.6754 12.2713L21.0438 15.743C22.3071 16.3617 23.6738 16.6109 24.9371 16.6109C28.8304 16.7333 31.2499 14.5034 31.2499 11.1563C31.2499 6.94126 26.3038 6.6942 26.3038 4.83589ZM43.7701 16.4863L40.9296 0.371656H37.8784C37.2468 0.371656 36.6152 0.867921 36.4046 1.61124L31.1446 16.4863H34.8273L35.5624 14.1317H40.0874L40.5085 16.4863H43.7701ZM38.4048 4.7113L39.4557 10.7846H36.5099L38.4048 4.7113Z" fill="#172B85"/>
</svg>
