<svg width="334" height="334" viewBox="0 0 334 334" fill="none" xmlns="http://www.w3.org/2000/svg">
<g filter="url(#filter0_f_1937_7101)">
<path d="M158.549 40.0088C163.468 35.9971 170.531 35.9971 175.451 40.0088L186.058 48.659C189.397 51.3807 193.842 52.3283 197.999 51.2046L211.178 47.6432C217.298 45.9893 223.738 48.8595 226.599 54.5157L232.826 66.8282C234.765 70.6598 238.425 73.3275 242.666 73.9993L256.21 76.1446C262.451 77.1331 267.148 82.3546 267.472 88.6639L268.185 102.555C268.404 106.825 270.654 110.734 274.238 113.069L285.826 120.621C291.102 124.061 293.263 130.717 291.011 136.599L286.026 149.625C284.501 153.61 284.97 158.083 287.287 161.665L294.855 173.358C298.274 178.643 297.544 185.597 293.101 190.056L283.3 199.895C280.286 202.92 278.898 207.202 279.566 211.42L281.747 225.189C282.733 231.418 279.231 237.489 273.345 239.756L260.495 244.703C256.495 246.243 253.476 249.605 252.376 253.747L248.817 267.14C247.193 273.258 241.5 277.397 235.18 277.059L221.529 276.329C217.233 276.099 213.089 277.949 210.393 281.301L201.784 292.007C197.808 296.952 190.903 298.422 185.256 295.523L173.107 289.286C169.273 287.32 164.727 287.32 160.893 289.286L148.743 295.523C143.097 298.422 136.192 296.952 132.216 292.007L123.607 281.301C120.911 277.949 116.767 276.099 112.471 276.329L98.8202 277.059C92.4993 277.397 86.8072 273.258 85.1823 267.14L81.6239 253.747C80.5237 249.605 77.5048 246.243 73.5054 244.703L60.6553 239.756C54.7685 237.489 51.2666 231.418 52.2532 225.189L54.4337 211.42C55.1016 207.202 53.7141 202.92 50.7001 199.895L40.8983 190.056C36.4556 185.597 35.7255 178.643 39.1451 173.358L46.712 161.665C49.0302 158.083 49.4989 153.61 47.9738 149.625L42.9882 136.599C40.7367 130.717 42.8972 124.061 48.1747 120.621L59.7625 113.069C63.3458 110.734 65.5954 106.825 65.8145 102.555L66.5275 88.6639C66.8514 82.3546 71.5482 77.1331 77.7891 76.1446L91.3331 73.9993C95.5745 73.3275 99.2351 70.6598 101.173 66.8282L107.401 54.5157C110.262 48.8595 116.702 45.9893 122.822 47.6432L136.001 51.2046C140.159 52.3283 144.603 51.3807 147.941 48.659L158.549 40.0088Z" fill="#1798E0" fill-opacity="0.16"/>
</g>
<mask id="mask0_1937_7101" style="mask-type:luminance" maskUnits="userSpaceOnUse" x="87" y="87" width="160" height="160">
<path d="M247 87H87V247H247V87Z" fill="white"/>
</mask>
<g mask="url(#mask0_1937_7101)">
<path d="M161.944 91.1237C164.887 88.7231 169.113 88.7231 172.056 91.1237L178.402 96.2999C180.4 97.9285 183.059 98.4956 185.546 97.8232L193.431 95.692C197.093 94.7024 200.946 96.4199 202.658 99.8045L206.383 107.172C207.543 109.465 209.733 111.061 212.27 111.463L220.374 112.747C224.107 113.339 226.918 116.463 227.111 120.239L227.538 128.551C227.669 131.106 229.015 133.445 231.159 134.843L238.092 139.361C241.249 141.42 242.542 145.403 241.194 148.923L238.212 156.717C237.299 159.102 237.58 161.778 238.966 163.922L243.494 170.919C245.54 174.081 245.103 178.242 242.445 180.911L236.581 186.798C234.778 188.609 233.947 191.171 234.347 193.695L235.652 201.934C236.242 205.661 234.146 209.294 230.625 210.651L222.937 213.611C220.544 214.533 218.738 216.545 218.079 219.023L215.95 227.037C214.978 230.698 211.573 233.175 207.791 232.973L199.624 232.536C197.054 232.398 194.574 233.505 192.962 235.511L187.811 241.917C185.432 244.877 181.301 245.756 177.922 244.021L170.654 240.289C168.36 239.113 165.64 239.113 163.347 240.289L156.077 244.021C152.699 245.756 148.568 244.877 146.189 241.917L141.038 235.511C139.426 233.505 136.946 232.398 134.376 232.536L126.209 232.973C122.427 233.175 119.022 230.698 118.05 227.037L115.921 219.023C115.262 216.545 113.456 214.533 111.063 213.611L103.375 210.651C99.8533 209.294 97.7582 205.661 98.3484 201.934L99.653 193.695C100.053 191.171 99.2225 188.609 97.4192 186.798L91.555 180.911C88.8969 178.242 88.4601 174.081 90.506 170.919L95.0332 163.922C96.4202 161.778 96.7006 159.102 95.7881 156.717L92.8053 148.923C91.4583 145.403 92.7509 141.42 95.9084 139.361L102.841 134.843C104.985 133.445 106.331 131.106 106.462 128.551L106.889 120.239C107.082 116.463 109.892 113.339 113.626 112.747L121.729 111.463C124.267 111.061 126.457 109.465 127.617 107.172L131.343 99.8045C133.054 96.4199 136.908 94.7024 140.569 95.692L148.454 97.8232C150.941 98.4956 153.6 97.9285 155.597 96.2999L161.944 91.1237Z" fill="#1798E0"/>
<path d="M162.637 97.0645C165.177 94.9786 168.823 94.9786 171.363 97.0645L177.238 101.889C179.212 103.509 181.841 104.074 184.3 103.404L191.599 101.418C194.757 100.559 198.084 102.05 199.562 104.993L203.011 111.859C204.156 114.139 206.32 115.728 208.829 116.128L216.33 117.324C219.551 117.838 221.979 120.553 222.146 123.838L222.541 131.585C222.671 134.125 224 136.451 226.119 137.841L232.537 142.053C235.262 143.842 236.38 147.306 235.216 150.368L232.455 157.632C231.554 160.002 231.831 162.664 233.2 164.795L237.392 171.316C239.159 174.067 238.781 177.686 236.485 180.007L231.057 185.493C229.275 187.294 228.456 189.842 228.851 192.351L230.059 200.029C230.552 203.171 228.868 206.233 225.999 207.493L225.718 207.609L218.601 210.368C216.235 211.285 214.452 213.287 213.802 215.751L211.831 223.22C210.991 226.404 208.05 228.556 204.788 228.38L197.228 227.973C194.686 227.836 192.236 228.938 190.643 230.933L185.875 236.903C183.821 239.476 180.256 240.239 177.341 238.732L170.611 235.254C168.344 234.083 165.656 234.083 163.389 235.254L156.659 238.732C153.745 240.239 150.18 239.476 148.126 236.903L143.357 230.933C141.764 228.938 139.314 227.836 136.772 227.973L129.212 228.38C125.95 228.556 123.009 226.404 122.169 223.22L120.198 215.751C119.548 213.287 117.765 211.285 115.399 210.368L108.282 207.609C105.243 206.431 103.431 203.272 103.941 200.029L105.149 192.351C105.544 189.842 104.725 187.294 102.943 185.493L97.5146 180.007C95.2191 177.686 94.8409 174.067 96.6084 171.316L100.8 164.795C102.169 162.664 102.446 160.003 101.545 157.633L98.7842 150.368C97.62 147.305 98.7382 143.841 101.464 142.053L107.881 137.841C109.999 136.45 111.328 134.125 111.458 131.585L111.854 123.838C112.021 120.553 114.449 117.838 117.67 117.324L125.171 116.128C127.68 115.728 129.844 114.139 130.989 111.859L134.438 104.993C135.917 102.05 139.243 100.559 142.401 101.418L149.7 103.404C152.16 104.073 154.788 103.509 156.762 101.889L162.637 97.0645Z" stroke="white"/>
</g>
<path d="M130.741 151.606L156.625 168.865C160.196 171.242 161.98 172.432 163.908 172.896C165.614 173.304 167.39 173.304 169.092 172.896C171.021 172.432 172.804 171.242 176.375 168.865L202.26 151.606M148.541 195.312H184.46C190.69 195.312 193.805 195.313 196.185 194.1C198.277 193.033 199.978 191.331 201.043 189.238C202.26 186.857 202.26 183.742 202.26 177.512V157.488C202.26 151.258 202.26 148.142 201.047 145.762C199.98 143.669 198.278 141.967 196.185 140.9C193.805 139.688 190.69 139.688 184.46 139.688H148.541C142.311 139.688 139.196 139.688 136.815 140.9C134.723 141.967 133.023 143.669 131.957 145.762C130.741 148.142 130.741 151.258 130.741 157.488V177.512C130.741 183.742 130.741 186.857 131.953 189.238C133.02 191.331 134.722 193.033 136.815 194.1C139.196 195.313 142.311 195.312 148.541 195.312Z" stroke="white" stroke-width="3" stroke-linecap="round" stroke-linejoin="round"/>
<defs>
<filter id="filter0_f_1937_7101" x="0.700001" y="0.700001" width="332.6" height="332.6" filterUnits="userSpaceOnUse" color-interpolation-filters="sRGB">
<feFlood flood-opacity="0" result="BackgroundImageFix"/>
<feBlend mode="normal" in="SourceGraphic" in2="BackgroundImageFix" result="shape"/>
<feGaussianBlur stdDeviation="18.15" result="effect1_foregroundBlur_1937_7101"/>
</filter>
</defs>
</svg>
