<svg width="110" height="110" viewBox="0 0 110 110" fill="none" xmlns="http://www.w3.org/2000/svg">
<path d="M51.8389 3.22229C53.6785 1.72195 56.3197 1.72208 58.1592 3.22229L62.5225 6.78088C64.0206 8.00228 66.0154 8.42778 67.8809 7.92346L73.3008 6.45862C75.5892 5.84008 77.9973 6.91353 79.0674 9.02893L81.6289 14.0944C82.4989 15.8138 84.1417 17.0106 86.0449 17.3121L91.6152 18.1949C93.9487 18.5646 95.7052 20.5179 95.8262 22.8776L96.1191 28.5914C96.2175 30.5082 97.228 32.2621 98.8359 33.3102L103.602 36.4176C105.513 37.6638 106.331 40.0387 105.615 42.1862L105.541 42.3932L103.49 47.7516C102.806 49.54 103.017 51.5483 104.057 53.1559L107.169 57.9664C108.447 59.9429 108.175 62.5435 106.514 64.2115L102.481 68.2584C101.129 69.6161 100.507 71.5383 100.807 73.4313L101.704 79.0953C102.061 81.3519 100.843 83.5531 98.7656 84.4596L98.5615 84.5436L93.2764 86.5787C91.4819 87.2699 90.1267 88.7786 89.6328 90.6373L88.1699 96.1471C87.5625 98.435 85.4337 99.9834 83.0703 99.8571L77.4551 99.5563C75.5274 99.4531 73.6676 100.284 72.458 101.788L68.917 106.193C67.43 108.042 64.8486 108.591 62.7373 107.507L57.7393 104.942C56.0191 104.059 53.9788 104.059 52.2588 104.942L47.2617 107.507C45.1507 108.591 42.568 108.042 41.0811 106.193L37.54 101.788C36.3305 100.284 34.4713 99.4532 32.5439 99.5563L26.9287 99.8571C24.5652 99.9836 22.4367 98.4351 21.8291 96.1471L20.3652 90.6373C19.8715 88.7787 18.517 87.2699 16.7227 86.5787L11.4365 84.5436H11.4375C9.23613 83.6955 7.92603 81.4248 8.29492 79.0953L9.19238 73.4313C9.49208 71.5383 8.86904 69.6162 7.5166 68.2584L3.48535 64.2115C1.82417 62.5436 1.55074 59.9429 2.8291 57.9664L5.94238 53.1559C6.98261 51.5482 7.19217 49.5399 6.50781 47.7516L4.45703 42.3932C3.61523 40.1932 4.42332 37.704 6.39648 36.4176L11.1631 33.3102C12.7708 32.2621 13.7806 30.5081 13.8789 28.5914L14.1719 22.8776C14.293 20.518 16.0493 18.5647 18.3828 18.1949L23.9541 17.3121C25.8571 17.0106 27.4995 15.8137 28.3691 14.0944L30.9307 9.02893C32.0004 6.91361 34.4089 5.84021 36.6973 6.45862L42.1182 7.92346C43.9839 8.42776 45.9779 8.00235 47.4756 6.78088L51.8389 3.22229Z" stroke="#979797"/>
<path d="M33.9994 45.6667V57.4267C33.9994 66.1837 33.9994 70.561 36.734 73.2793C39.4687 75.9977 43.867 76 52.666 76H57.3327C66.1317 76 70.5324 76 73.2647 73.2793C75.997 70.5587 75.9994 66.1837 75.9994 57.429V45.6667M50.3327 52.6667H59.666M74.128 34H35.8707C34.1207 34 33.2434 34 32.6367 34.413C32.3372 34.6176 32.0895 34.8893 31.9134 35.2063C31.5564 35.841 31.6427 36.6997 31.8177 38.4217C32.1094 41.294 32.254 42.7313 33.0147 43.758C33.395 44.269 33.8757 44.6983 34.4287 45.0203C35.5394 45.6667 37 45.6667 39.926 45.6667H70.0774C73.001 45.6667 74.4617 45.6667 75.5724 45.0203C76.1254 44.6983 76.606 44.269 76.9864 43.758C77.747 42.7313 77.8917 41.294 78.1834 38.4217C78.3584 36.702 78.4447 35.841 78.09 35.204C77.9129 34.8875 77.6644 34.6167 77.3644 34.413C76.7554 34 75.878 34 74.128 34Z" stroke="#232323" stroke-opacity="0.55" stroke-width="1.5" stroke-linecap="round" stroke-linejoin="round"/>
</svg>
